:FULLY-SPECIFIED
:FORCE-ALL-JOINTS-BE-3DOF
:DEGREES
2446
root 2.43268 14.7525 -23.3609 -151.231 82.991 -150.5
lfemur -35.9997 19.8148 -13.5717
ltibia 74.5538 -0 0
lfoot -26.0614 16.5457 -0.156993
ltoes -38.5605 0 0
rfemur -41.3429 -22.3367 10.7884
rtibia 60.3513 -0 0
rfoot 8.56472 -1.49871 0.876569
rtoes 1.97191 -0 0
lowerback 15.8931 0.834612 -4.18231
upperback -1.00846 0.628835 2.82582
thorax -9.96297 0.632874 5.33069
lowerneck 3.13194 -13.4454 -15.3185
upperneck 1.72743 -18.6889 12.9815
head 2.67074 -9.41784 5.61395
lclavicle 1.08586e-14 -2.66371e-14 0
lhumerus -39.3018 -41.9283 108.912
lradius 104.994 -0 0
lwrist 63.6113 0 0
lhand 0.990512 41.8409 0.0747615
lfingers 7.12502 -0 0
lthumb 26.4221 68.6452 -0.282396
rclavicle 1.08586e-14 -2.66371e-14 0
rhumerus 15.3338 11.2344 -70.8868
rradius 110.19 -0 0
rwrist 10.3233 0 0
rhand -31.883 -45.0618 0.447504
rfingers 7.12502 -0 0
rthumb -5.13308 -74.5622 0.435347
2447
root 2.49834 14.7452 -23.3785 -151.51 82.9459 -150.529
lfemur -35.3813 20.1027 -13.4955
ltibia 74.6711 -0 0
lfoot -26.4911 16.7672 -0.146397
ltoes -38.4555 0 0
rfemur -41.5351 -22.4215 10.2424
rtibia 58.9112 -0 0
rfoot 9.36816 -0.837018 0.817181
rtoes 2.61192 -0 0
lowerback 15.889 0.67714 -4.33133
upperback -1.0108 0.403296 2.93925
thorax -9.95024 0.536977 5.59665
lowerneck 3.12217 -13.4535 -15.3784
upperneck 1.90979 -18.7092 12.9144
head 2.72803 -9.42803 5.593
lclavicle 1.08586e-14 -2.66371e-14 0
lhumerus -40.4069 -42.4202 109.513
lradius 105.591 -0 0
lwrist 65.3258 0 0
lhand 2.46093 41.8717 0.0696719
lfingers 7.12502 -0 0
lthumb 27.8331 68.5238 -0.263185
rclavicle 1.08586e-14 -2.66371e-14 0
rhumerus 13.5831 9.22988 -71.4429
rradius 109.903 -0 0
rwrist 13.421 0 0
rhand -32.8736 -45.3358 0.41719
rfingers 7.12502 -0 0
rthumb -6.08913 -74.8384 0.405865
2448
root 2.56401 14.7379 -23.3962 -151.776 82.9023 -150.555
lfemur -34.7824 20.3801 -13.4186
ltibia 74.7844 -0 0
lfoot -26.9062 16.9811 -0.134582
ltoes -38.354 0 0
rfemur -41.72 -22.5051 9.71489
rtibia 57.5199 -0 0
rfoot 10.1437 -0.198578 0.751001
rtoes 3.23027 -0 0
lowerback 15.8854 0.524987 -4.47529
upperback -1.01349 0.185393 3.04885
thorax -9.93836 0.444271 5.85359
lowerneck 3.11275 -13.4613 -15.4364
upperneck 2.08603 -18.7287 12.8495
head 2.78337 -9.43786 5.57274
lclavicle 1.08586e-14 -2.66371e-14 0
lhumerus -41.4895 -42.8871 110.11
lradius 106.169 -0 0
lwrist 66.9822 0 0
lhand 3.8816 41.9014 0.0640043
lfingers 7.12502 -0 0
lthumb 29.1963 68.407 -0.241789
rclavicle 1.08586e-14 -2.66371e-14 0
rhumerus 11.9188 7.27827 -71.9186
rradius 109.626 -0 0
rwrist 16.4139 0 0
rhand -33.8305 -45.5999 0.383407
rfingers 7.12502 -0 0
rthumb -7.01268 -75.1047 0.373008
2449
root 2.62967 14.7306 -23.4139 -152.031 82.8605 -150.578
lfemur -34.2063 20.6456 -13.3417
ltibia 74.8932 -0 0
lfoot -27.3044 17.1863 -0.121789
ltoes -38.2566 0 0
rfemur -41.8968 -22.5868 9.20866
rtibia 56.1848 -0 0
rfoot 10.8871 0.413156 0.679381
rtoes 3.82363 -0 0
lowerback 15.8823 0.378975 -4.61342
upperback -1.01646 -0.0236979 3.15403
thorax -9.92735 0.355261 6.10012
lowerneck 3.10371 -13.4688 -15.4919
upperneck 2.25519 -18.7472 12.7872
head 2.83649 -9.44727 5.5533
lclavicle 1.08586e-14 -2.66371e-14 0
lhumerus -42.5424 -43.3272 110.698
lradius 106.722 -0 0
lwrist 68.5717 0 0
lhand 5.24484 41.9297 0.0578757
lfingers 7.12502 -0 0
lthumb 30.5044 68.2954 -0.218651
rclavicle 1.08586e-14 -2.66371e-14 0
rhumerus 10.3431 5.39351 -72.3197
rradius 109.36 -0 0
rwrist 19.2858 0 0
rhand -34.7487 -45.8528 0.346847
rfingers 7.12502 -0 0
rthumb -7.89875 -75.3597 0.337449
2450
root 2.69534 14.7234 -23.4316 -152.272 82.8206 -150.599
lfemur -33.6563 20.8977 -13.2658
ltibia 74.9967 -0 0
lfoot -27.6836 17.3817 -0.10828
ltoes -38.1638 0 0
rfemur -42.0645 -22.6659 8.72657
rtibia 54.9134 -0 0
rfoot 11.5943 0.994774 0.603812
rtoes 4.38867 -0 0
lowerback 15.8797 0.239925 -4.74495
upperback -1.01965 -0.222804 3.25421
thorax -9.91722 0.270457 6.33487
lowerneck 3.09511 -13.476 -15.5449
upperneck 2.41631 -18.7646 12.7277
head 2.88708 -9.45622 5.53477
lclavicle 1.08586e-14 -2.66371e-14 0
lhumerus -43.5578 -43.7389 111.273
lradius 107.25 -0 0
lwrist 70.0853 0 0
lhand 6.54302 41.9566 0.0514148
lfingers 7.12502 -0 0
lthumb 31.75 68.1896 -0.194255
rclavicle 1.08586e-14 -2.66371e-14 0
rhumerus 8.85875 3.58921 -72.6523
rradius 109.107 -0 0
rwrist 22.0207 0 0
rhand -35.6228 -46.0931 0.308269
rfingers 7.12502 -0 0
rthumb -8.74237 -75.602 0.299925
2451
root 2.76101 14.7161 -23.4493 -152.498 82.783 -150.617
lfemur -33.136 21.1351 -13.1916
ltibia 75.0944 -0 0
lfoot -28.0416 17.566 -0.0943419
ltoes -38.0763 0 0
rfemur -42.2223 -22.7418 8.27146
rtibia 53.7132 -0 0
rfoot 12.2612 1.54291 0.525898
rtoes 4.92205 -0 0
lowerback 15.8776 0.10866 -4.86911
upperback -1.02298 -0.41075 3.34878
thorax -9.90798 0.190365 6.55645
lowerneck 3.087 -13.4828 -15.5949
upperneck 2.56843 -18.7809 12.6716
head 2.93483 -9.46465 5.51727
lclavicle 1.08586e-14 -2.66371e-14 0
lhumerus -44.528 -44.1206 111.828
lradius 107.748 -0 0
lwrist 71.5142 0 0
lhand 7.76846 41.9817 0.0447595
lfingers 7.12502 -0 0
lthumb 32.9257 68.0903 -0.169121
rclavicle 1.08586e-14 -2.66371e-14 0
rhumerus 7.46921 1.87867 -72.9227
rradius 108.868 -0 0
rwrist 24.6023 0 0
rhand -36.4478 -46.3193 0.268494
rfingers 7.12502 -0 0
rthumb -9.53858 -75.8301 0.261234
